# xmcd
#
# Track frame offsets:
#	150
#	12400
#	27929
#	53527
#	68040
#	86152
#	99160
#	111560
#	125124
#	135661
#
# Disc length: 2006
#
# Revision: 3
# Processed by: cddbd v1.5.1PL0 Copyright (c) Steve Scherf et al.
# Submitted via: EasyCDDAExtractor 5.0.4.1
# Normalized: r2:DSETVAR1
#
DISCID=8507d40a
DTITLE=Various Artist - Cobalt Blues
DYEAR=1998
DGENRE=Blues
TTITLE0=Charles Brown - Livin' In Misery
TTITLE1=Gatemouth Moore - Somebody Got To Go
TTITLE2=B.B. King - Guess Who
TTITLE3=Leadbelly - Poor Howard/Green Corn
TTITLE4=Lightnin' Hopkins - Bring Me My Shotgun
TTITLE5=Dinah Washington - Blues For A Day
TTITLE6=John Lee Hoooker - Crawlin' Black Spider
TTITLE7=Bo Diddley - Somebody's Cryin'
TTITLE8=Elmore James - I Done Somebody Wrong
TTITLE9=Charles Brown - Baby Let Me Hold Your Hand
EXTD=YEAR: 1998 ID3G:   0\n
EXTT0=
EXTT1=
EXTT2=
EXTT3=
EXTT4=
EXTT5=
EXTT6=
EXTT7=
EXTT8=
EXTT9=
PLAYORDER=
